<svg viewBox="0 0 18 20"
     xmlns="http://www.w3.org/2000/svg">
    <path fill-rule="evenodd"
          clip-rule="evenodd"
          d="M11.3478 19.1136C10.9042 19.5274 10.1752 20 9.1749 20C8.17202 20 7.44301 19.5274 6.99943 19.1123C6.75578 18.884 6.54359 18.626 6.36813 18.3447C6.35141 18.3197 6.32055 18.2634 6.31027 18.2459L6.31798 18.2584L6.31284 18.2509L6.31155 18.2472C6.31155 18.2472 6.31027 18.2447 7.16529 17.8121L8.0203 17.3783L8.01902 17.3758L8.01773 17.3745L8.01645 17.3708C8.10421 17.5141 8.21147 17.6453 8.33531 17.7608C8.56031 17.9709 8.83675 18.1234 9.17361 18.1234C9.51176 18.1234 9.78691 17.9709 10.0132 17.7608C10.1316 17.6487 10.2353 17.5227 10.3218 17.3858L10.3321 17.3708L10.3295 17.3745V17.3758L10.3282 17.377L11.1832 17.8121L12.0382 18.2459L12.037 18.2472L12.0344 18.2509L12.0305 18.2597L12.0177 18.2809C11.9673 18.3712 11.9115 18.4584 11.8505 18.5422C11.7031 18.7483 11.5352 18.9396 11.3491 19.1136H11.3478ZM4.40737 1.81659C5.34082 0.633869 6.83228 0 9.00004 0C11.1678 0 12.6593 0.633869 13.5927 1.81659C14.4734 2.9318 14.7203 4.37832 14.8334 5.67731C14.8759 6.15365 14.9016 6.6475 14.926 7.12134L14.9543 7.65019C14.9903 8.29031 15.0379 8.88167 15.1317 9.41927C15.3207 10.507 15.6717 11.1921 16.3082 11.5797C16.9922 11.9973 17.4718 12.4761 17.7444 13.0174C18.0221 13.5675 18.0452 14.1076 17.9475 14.564C17.8536 15.0053 17.6518 15.3566 17.4885 15.5854C17.3908 15.7231 17.2815 15.8528 17.1619 15.973L17.1516 15.983L17.1478 15.988L17.1452 15.9892L17.1516 15.983L17.1439 15.9905C16.9643 16.1588 16.7247 16.2529 16.4753 16.253H1.52474C1.27535 16.2529 1.03572 16.1588 0.85616 15.9905L0.853589 15.9892L0.852303 15.988L0.848446 15.983L0.83816 15.9742C0.802027 15.9389 0.767287 15.9022 0.734015 15.8642C0.653968 15.7756 0.579269 15.6825 0.510297 15.5854C0.289872 15.2777 0.134305 14.9305 0.0525729 14.564C-0.0609766 14.0405 0.0106069 13.4951 0.25572 13.0162C0.528297 12.4761 1.00659 11.9973 1.69189 11.5797C2.32705 11.1921 2.67805 10.507 2.86834 9.41927C2.9622 8.88167 3.00977 8.29031 3.04578 7.65019L3.07406 7.12134C3.09978 6.64875 3.12549 6.15365 3.16663 5.67731C3.27978 4.37707 3.52664 2.9318 4.40737 1.81659ZM2.01204 14.3777H15.988C16.0199 14.3158 16.0437 14.2503 16.0587 14.1827C16.0853 14.0671 16.0689 13.9462 16.0125 13.8413C15.9405 13.6976 15.7553 13.4563 15.2834 13.1687C13.9527 12.3573 13.4538 11.0146 13.2301 9.73308C13.1252 9.07793 13.0578 8.41762 13.0283 7.7552C13.0174 7.56437 13.0071 7.3735 12.9974 7.1826C12.9774 6.73331 12.9491 6.2844 12.9125 5.83609C12.802 4.57711 12.5782 3.61318 12.0627 2.95806C11.5998 2.37044 10.7654 1.87535 9.00004 1.87535C7.23472 1.87535 6.40027 2.3717 5.9374 2.95806C5.42054 3.61318 5.1981 4.57711 5.08882 5.83609C5.05024 6.27868 5.02581 6.72251 5.00267 7.1826L4.97181 7.7552C4.94224 8.41762 4.87485 9.07793 4.76995 9.73308C4.54623 11.0146 4.04737 12.3586 2.71663 13.1687C2.24347 13.4563 2.0609 13.6976 1.98761 13.8413C1.93069 13.9461 1.91383 14.067 1.94004 14.1827C1.95552 14.2504 1.97971 14.3159 2.01204 14.3777Z"
          fill="currentColor" />
</svg>