<svg viewBox="0 0 20 20" xmlns="http://www.w3.org/2000/svg">
<g clip-path="url(#clip0)">
<path fill="currentColor" d="M12.3567 7.64303C12.1942 7.48053 11.93 7.48053 11.7675 7.64303C11.605 7.80553 11.605 8.07053 11.7675 8.23221C12.2392 8.70389 12.5 9.33139 12.5 9.99971C12.5 11.378 11.3784 12.4997 10 12.4997C9.33172 12.4997 8.70422 12.2397 8.23254 11.7672C8.07004 11.6047 7.80586 11.6047 7.64336 11.7672C7.48086 11.9289 7.48086 12.1939 7.64336 12.3564C8.27168 12.9864 9.10918 13.3331 10 13.3331C11.8384 13.3331 13.3334 11.8381 13.3334 9.99975C13.3334 9.10885 12.9867 8.27135 12.3567 7.64303Z"/>
<path fill="currentColor" d="M10.5809 6.72385C10.3917 6.69053 10.1984 6.66635 10.0001 6.66635C8.16175 6.66635 6.66675 8.16135 6.66675 9.99967C6.66675 10.198 6.69093 10.3913 6.72507 10.5805C6.76089 10.7822 6.93675 10.9247 7.13425 10.9247C7.15843 10.9247 7.18257 10.923 7.20757 10.918C7.43339 10.878 7.58507 10.6613 7.54507 10.4355C7.51925 10.2938 7.50007 10.1497 7.50007 9.99967C7.50007 8.62135 8.62175 7.49967 10.0001 7.49967C10.1501 7.49967 10.2943 7.51885 10.4359 7.54385C10.6576 7.58885 10.8784 7.43217 10.9184 7.20635C10.9584 6.98053 10.8068 6.76385 10.5809 6.72385Z"/>
<path fill="currentColor" d="M19.9009 9.73053C19.8067 9.61885 17.5526 6.98803 14.4434 5.37721C14.2417 5.27139 13.9876 5.35139 13.8817 5.55639C13.7759 5.76057 13.8559 6.01221 14.0609 6.11807C16.4559 7.35807 18.3692 9.29307 19.0234 9.99974C18.0301 11.0756 14.1209 14.9997 10.0001 14.9997C8.60179 14.9997 7.19262 14.6622 5.81012 13.9956C5.60512 13.8947 5.3543 13.9822 5.2543 14.1897C5.15348 14.3964 5.24098 14.6456 5.44848 14.7456C6.9443 15.4681 8.47597 15.8331 10.0002 15.8331C15.1343 15.8331 19.7093 10.4964 19.9018 10.2689C20.0334 10.1138 20.0326 9.88635 19.9009 9.73053Z"/>
<path fill="currentColor" d="M12.7337 4.64636C11.7854 4.32718 10.8654 4.16636 9.99955 4.16636C4.86538 4.16636 0.290388 9.50303 0.0978885 9.73053C-0.023791 9.87385 -0.0337909 10.0822 0.0745682 10.238C0.132068 10.3205 1.50957 12.2763 3.89706 13.8622C3.96788 13.9097 4.04706 13.9322 4.12706 13.9322C4.26124 13.9322 4.39374 13.8672 4.47374 13.7447C4.60124 13.5539 4.54874 13.2947 4.35706 13.168C2.60374 12.0022 1.40375 10.5947 0.954567 10.0222C1.91374 8.98053 5.84874 4.99972 9.99955 4.99972C10.7754 4.99972 11.6062 5.1464 12.4679 5.43554C12.6862 5.51386 12.9229 5.39304 12.9954 5.17386C13.0687 4.95554 12.952 4.71972 12.7337 4.64636Z"/>
<path fill="currentColor" d="M17.3774 2.62218C17.2149 2.45968 16.9507 2.45968 16.7882 2.62218L2.62163 16.7888C2.45913 16.9513 2.45913 17.2155 2.62163 17.378C2.70331 17.4588 2.80995 17.4997 2.91663 17.4997C3.02331 17.4997 3.12995 17.4589 3.21081 17.378L17.3774 3.21136C17.5399 3.04886 17.5399 2.78468 17.3774 2.62218Z"/>
</g>
<defs>
<clipPath id="clip0">
<rect width="20" height="20" fill="white"/>
</clipPath>
</defs>
</svg>
