<svg viewBox="0 0 21 21"
     fill="none"
     xmlns="http://www.w3.org/2000/svg">
    <g clip-path="url(#clip0)">
        <path d="M8.62412 16.7698C6.71485 16.7698 5.16087 15.1744 5.16087 13.2143V4.63922H3.73482C2.49865 4.63922 1.4939 5.67074 1.4939 6.93984V18.2338C1.4939 19.5029 2.49865 20.5344 3.73482 20.5344H13.9209C15.157 20.5344 16.1618 19.5029 16.1618 18.2338V16.7698H8.62412Z"
              fill="currentColor" />
        <path d="M19.4214 2.75692C19.4214 1.48614 18.4183 0.456299 17.1805 0.456299H8.62423C7.38642 0.456299 6.3833 1.48614 6.3833 2.75692V13.2143C6.3833 14.4851 7.38642 15.5149 8.62423 15.5149H17.1805C18.4183 15.5149 19.4214 14.4851 19.4214 13.2143V2.75692Z"
              fill="currentColor" />
    </g>
    <defs>
        <clipPath id="clip0">
            <rect width="19.5572"
                  height="20.0781"
                  fill="white"
                  transform="translate(0.678955 0.456299)" />
        </clipPath>
    </defs>
</svg>