<svg viewBox="0 0 20 20"
     fill="none"
     xmlns="http://www.w3.org/2000/svg">
    <path d="M9.91621 1.62183C11.3896 1.62183 12.8652 2.04004 14.1837 2.83135C15.02 3.33452 15.7715 3.9669 16.4099 4.70532L14.2072 4.63267C13.9485 4.62402 13.7318 4.8269 13.7233 5.08574C13.7148 5.34443 13.9176 5.56123 14.1764 5.56958L17.224 5.67022C17.3991 5.74229 17.6003 5.702 17.7342 5.56797C17.868 5.43394 17.908 5.23267 17.8356 5.05762L17.7353 2.01074C17.7294 1.7519 17.5148 1.54683 17.256 1.55254C16.9973 1.5584 16.7919 1.773 16.7978 2.03169C16.7978 2.03521 16.7978 2.03843 16.798 2.0418L16.8561 3.79961C16.2112 3.11055 15.4743 2.51392 14.6661 2.02715C13.202 1.14868 11.5595 0.684326 9.91621 0.684326C7.29121 0.684326 4.871 1.7667 3.10234 3.73193C1.53555 5.4729 0.600098 7.81621 0.600098 10.0004C0.600098 10.2593 0.809863 10.4692 1.06885 10.4692C1.32783 10.4692 1.5376 10.2593 1.5376 10.0004C1.5376 8.0415 2.38296 5.93257 3.79917 4.35918C5.38794 2.59419 7.56016 1.62183 9.91621 1.62183Z"
          fill="currentColor" />
    <path d="M18.8812 9.53169C18.6222 9.53169 18.4125 9.74146 18.4125 10.0004C18.4125 11.9592 17.5671 14.0683 16.1509 15.6418C14.5621 17.4068 12.3899 18.3789 10.0338 18.3789C8.56051 18.3789 7.08482 17.961 5.76632 17.1697C4.93004 16.6663 4.17857 16.034 3.54019 15.2957L5.74288 15.3684C6.00157 15.3767 6.21822 15.1738 6.22672 14.9151C6.23521 14.6564 6.03248 14.4398 5.77364 14.4311L2.72603 14.3307C2.55098 14.2586 2.34971 14.299 2.21583 14.4329C2.08209 14.5669 2.0421 14.7681 2.11446 14.9431L2.2148 17.99C2.22066 18.249 2.43526 18.4542 2.6941 18.4483C2.95279 18.4426 3.15816 18.228 3.1523 17.9692C3.1523 17.9658 3.1523 17.9626 3.15201 17.9591L3.094 16.2013C3.73883 16.8905 4.47579 17.4868 5.28394 17.9739C6.74805 18.8525 8.39058 19.3167 10.0338 19.3167C12.6588 19.3167 15.0791 18.2345 16.8477 16.2692C18.4145 14.5281 19.35 12.1848 19.35 10.0004C19.35 9.74146 19.1402 9.53169 18.8812 9.53169Z"
          fill="currentColor" />
</svg>