<svg viewBox="0 0 20 20" xmlns="http://www.w3.org/2000/svg">
<path fill-rule="evenodd" clip-rule="evenodd" d="M9.99999 14.3808C10.5753 14.3808 11.145 14.2675 11.6765 14.0474C12.208 13.8272 12.6909 13.5045 13.0977 13.0977C13.5045 12.6909 13.8272 12.208 14.0474 11.6765C14.2675 11.145 14.3808 10.5753 14.3808 9.99999C14.3808 9.4247 14.2675 8.85503 14.0474 8.32352C13.8272 7.79201 13.5045 7.30908 13.0977 6.90228C12.6909 6.49548 12.208 6.17279 11.6765 5.95263C11.145 5.73247 10.5753 5.61916 9.99999 5.61916C8.83812 5.61916 7.72384 6.08071 6.90228 6.90228C6.08071 7.72384 5.61916 8.83812 5.61916 9.99999C5.61916 11.1619 6.08071 12.2761 6.90228 13.0977C7.72384 13.9193 8.83812 14.3808 9.99999 14.3808ZM9.99999 15.6667C13.1558 15.6667 15.7142 13.1558 15.7142 9.99999C15.7142 8.4845 15.1121 7.03108 14.0405 5.95947C12.9689 4.88785 11.5155 4.28583 9.99999 4.28583C8.4845 4.28583 7.03108 4.88785 5.95947 5.95947C4.88785 7.03108 4.28583 8.4845 4.28583 9.99999C4.28583 13.1558 6.84416 15.6667 9.99999 15.6667Z" fill="currentColor"/>
<path d="M7.8575 18.5717H12.1425L11.0717 20H8.92833L7.8575 18.5717ZM7.8575 15.2583H12.1425V17.1433H7.85833L7.8575 15.2583ZM17.8567 8.57167H20V10H17.8575L17.8567 8.57167ZM10.7142 0V2.1425H9.28583V0H10.7142ZM2.34 3.5175L3.91167 5.08917L5.09 3.91083L3.51917 2.33917L2.34 3.5175ZM17.655 3.5175L16.0842 5.08917L14.9058 3.91083L16.4767 2.33917L17.655 3.5175ZM0 8.57167H2.1425V10H0V8.57167Z" fill="currentColor"/>
</svg>
