<svg width="190" height="274" viewBox="0 0 190 274" fill="none" xmlns="http://www.w3.org/2000/svg">
<path d="M172.768 158.122C166.973 152.485 159.317 149.497 151.232 149.727C135.791 150.155 123.133 162.571 122.415 177.993C121.986 187.208 125.91 196.17 132.938 202.101V223.026C132.938 233.576 141.52 242.159 152.069 242.159C162.619 242.159 171.201 233.576 171.201 223.026V202.102C177.918 196.44 181.757 188.204 181.757 179.403C181.757 171.318 178.565 163.76 172.768 158.122ZM163.252 193.267C160.757 195.281 159.326 198.292 159.326 201.525V223.027C159.326 227.028 156.071 230.284 152.069 230.284C148.068 230.284 144.813 227.029 144.813 223.027V201.525C144.813 198.292 143.383 195.282 140.89 193.269C140.89 193.269 140.89 193.269 140.89 193.269C136.42 189.659 134.009 184.293 134.277 178.545C134.708 169.298 142.299 161.854 151.56 161.598C151.73 161.593 151.9 161.591 152.07 161.591C156.741 161.591 161.134 163.371 164.488 166.634C167.967 170.017 169.882 174.552 169.882 179.403C169.882 184.81 167.465 189.863 163.252 193.267Z" fill="#FDFDFD"/>
<path d="M229.257 120.393V77.1875C229.257 34.6257 194.631 0 152.069 0C109.508 0 74.8818 34.6257 74.8818 77.1875V120.316C60.4056 135.111 50.3599 153.864 46.2055 174.15C45.5476 177.362 47.6186 180.499 50.8314 181.158C54.0459 181.816 57.1815 179.745 57.8394 176.532C66.9499 132.042 106.58 99.75 152.069 99.75C205.107 99.75 248.257 142.9 248.257 195.938C248.257 248.975 205.107 292.125 152.069 292.125C106.573 292.125 66.9416 259.827 57.8364 215.329C57.1792 212.117 54.0448 210.044 50.829 210.702C47.6162 211.36 45.5452 214.497 46.2025 217.71C51.1199 241.741 64.3047 263.621 83.3291 279.322C102.612 295.236 127.025 304 152.069 304C211.655 304 260.132 255.523 260.132 195.938C260.132 166.561 248.344 139.89 229.257 120.393ZM188.882 94.3356C177.387 90.158 164.99 87.875 152.069 87.875C139.446 87.875 126.983 90.1045 115.257 94.351V77.1875C115.257 56.889 131.771 40.375 152.069 40.375C172.368 40.375 188.882 56.889 188.882 77.1875V94.3356ZM217.382 109.907C212.187 105.953 206.626 102.458 200.757 99.4828V77.1875C200.757 50.3411 178.916 28.5 152.069 28.5C125.223 28.5 103.382 50.3411 103.382 77.1875V99.4739C97.5577 102.409 91.9884 105.875 86.7568 109.844V77.1875C86.7568 41.1742 116.056 11.875 152.069 11.875C188.083 11.875 217.382 41.1742 217.382 77.1875V109.907Z" fill="#FDFDFD"/>
<path d="M231.818 177.051C227.651 159.392 217.515 143.382 203.28 131.971C188.822 120.382 170.635 114 152.069 114C148.79 114 146.132 116.659 146.132 119.937C146.132 123.216 148.79 125.875 152.069 125.875C184.73 125.875 212.771 148.041 220.26 179.779C220.905 182.512 223.342 184.353 226.035 184.353C226.486 184.353 226.945 184.302 227.403 184.193C230.595 183.44 232.571 180.242 231.818 177.051Z" fill="#FDFDFD"/>
<path d="M50.0839 190H49.8054C46.5261 190 43.8679 192.659 43.8679 195.938C43.8679 199.216 46.5261 201.875 49.8054 201.875H50.0839C53.3632 201.875 56.0214 199.216 56.0214 195.938C56.0214 192.659 53.3632 190 50.0839 190Z" fill="#FDFDFD"/>
</svg>
