<svg width="147" height="274" viewBox="0 0 147 274" fill="none" xmlns="http://www.w3.org/2000/svg">
<path d="M129.768 158.122C123.973 152.485 116.317 149.497 108.232 149.727C92.7906 150.155 80.1331 162.571 79.4146 177.993C78.9859 187.208 82.91 196.17 89.9377 202.101V223.026C89.9377 233.576 98.5203 242.159 109.069 242.159C119.619 242.159 128.201 233.576 128.201 223.026V202.102C134.918 196.44 138.757 188.204 138.757 179.403C138.757 171.318 135.565 163.76 129.768 158.122ZM120.252 193.267C117.757 195.281 116.326 198.292 116.326 201.525V223.027C116.326 227.028 113.071 230.284 109.069 230.284C105.068 230.284 101.813 227.029 101.813 223.027V201.525C101.813 198.292 100.383 195.282 97.8898 193.269C97.8898 193.269 97.8898 193.269 97.8898 193.269C93.42 189.659 91.0094 184.293 91.2772 178.545C91.7076 169.298 99.2993 161.854 108.56 161.598C108.73 161.593 108.9 161.591 109.07 161.591C113.741 161.591 118.134 163.371 121.488 166.634C124.967 170.017 126.882 174.552 126.882 179.403C126.882 184.81 124.465 189.863 120.252 193.267Z" fill="#FDFDFD"/>
<path d="M186.257 120.393V77.1875C186.257 34.6257 151.631 0 109.069 0C66.5081 0 31.8818 34.6257 31.8818 77.1875V120.316C17.4056 135.111 7.35994 153.864 3.20547 174.15C2.54759 177.362 4.61859 180.499 7.83138 181.158C11.0459 181.816 14.1815 179.745 14.8394 176.532C23.9499 132.042 63.5798 99.75 109.069 99.75C162.107 99.75 205.257 142.9 205.257 195.938C205.257 248.975 162.107 292.125 109.069 292.125C63.5726 292.125 23.9416 259.827 14.8364 215.329C14.1792 212.117 11.0448 210.044 7.829 210.702C4.61622 211.36 2.54522 214.497 3.2025 217.71C8.11994 241.741 21.3047 263.621 40.3291 279.322C59.6123 295.236 84.0249 304 109.069 304C168.655 304 217.132 255.523 217.132 195.938C217.132 166.561 205.344 139.89 186.257 120.393ZM145.882 94.3356C134.387 90.158 121.99 87.875 109.069 87.875C96.4456 87.875 83.9834 90.1045 72.2568 94.351V77.1875C72.2568 56.889 88.7708 40.375 109.069 40.375C129.368 40.375 145.882 56.889 145.882 77.1875V94.3356ZM174.382 109.907C169.187 105.953 163.626 102.458 157.757 99.4828V77.1875C157.757 50.3411 135.916 28.5 109.069 28.5C82.2229 28.5 60.3818 50.3411 60.3818 77.1875V99.4739C54.5577 102.409 48.9884 105.875 43.7568 109.844V77.1875C43.7568 41.1742 73.056 11.875 109.069 11.875C145.083 11.875 174.382 41.1742 174.382 77.1875V109.907Z" fill="#FDFDFD"/>
<path d="M188.818 177.051C184.651 159.392 174.515 143.382 160.28 131.971C145.822 120.382 127.635 114 109.069 114C105.79 114 103.132 116.659 103.132 119.937C103.132 123.216 105.79 125.875 109.069 125.875C141.73 125.875 169.771 148.041 177.26 179.779C177.905 182.512 180.342 184.353 183.035 184.353C183.486 184.353 183.945 184.302 184.403 184.193C187.595 183.44 189.571 180.242 188.818 177.051Z" fill="#FDFDFD"/>
<path d="M7.08389 190H6.80542C3.52614 190 0.86792 192.659 0.86792 195.938C0.86792 199.216 3.52614 201.875 6.80542 201.875H7.08389C10.3632 201.875 13.0214 199.216 13.0214 195.938C13.0214 192.659 10.3632 190 7.08389 190Z" fill="#FDFDFD"/>
</svg>
