<svg width="72" height="70" viewBox="0 0 72 70" fill="none" xmlns="http://www.w3.org/2000/svg">
<path d="M11.8321 53.7849C11.5511 53.2968 10.9151 53.1341 10.4271 53.4151L7.85351 54.9089V51.9361C7.85351 51.374 7.39501 50.9155 6.83297 50.9155C6.27093 50.9155 5.81243 51.374 5.81243 51.9361V54.9089L3.23889 53.4151C2.7508 53.1341 2.11481 53.2968 1.83379 53.7849C1.55277 54.273 1.71547 54.9089 2.20355 55.19L4.79188 56.6986L2.20355 58.2072C1.71547 58.4882 1.55277 59.1242 1.83379 59.6123C2.11481 60.1004 2.7508 60.2631 3.23889 59.9821L5.81243 58.4882V61.4611C5.81243 62.0232 6.27093 62.4817 6.83297 62.4817C7.39501 62.4817 7.85351 62.0232 7.85351 61.4611V58.4882L10.4271 59.9821C10.9151 60.2631 11.5511 60.1004 11.8321 59.6123C12.1132 59.1242 11.9505 58.4882 11.4624 58.2072L8.87405 56.6986L11.4624 55.19C11.9505 54.8942 12.128 54.273 11.8321 53.7849Z" fill="white"/>
<path d="M21.2835 59.5975C21.5645 60.0856 22.2005 60.2483 22.6886 59.9673L25.2621 58.4734V61.4463C25.2621 62.0083 25.7206 62.4668 26.2827 62.4668C26.8447 62.4668 27.3032 62.0083 27.3032 61.4463V58.4734L29.8768 59.9673C30.3649 60.2483 31.0008 60.0856 31.2819 59.5975C31.5629 59.1094 31.4002 58.4734 30.9121 58.1924L28.3238 56.6838L30.9121 55.1751C31.4002 54.8941 31.5629 54.2581 31.2819 53.77C31.0008 53.282 30.3649 53.1193 29.8768 53.4003L27.3032 54.8941V51.9212C27.3032 51.3592 26.8447 50.9007 26.2827 50.9007C25.7206 50.9007 25.2621 51.3592 25.2621 51.9212V54.8941L22.6886 53.4151C22.2005 53.1341 21.5645 53.2968 21.2835 53.7848C21.0025 54.2729 21.1652 54.9089 21.6533 55.1899L24.2416 56.6986L21.6533 58.1924C21.1652 58.4734 21.0025 59.1094 21.2835 59.5975Z" fill="white"/>
<path d="M19.4495 67.3477V69.1522C19.4495 69.5811 19.8044 69.9361 20.2334 69.9361H32.3468C32.7757 69.9361 33.1306 69.5811 33.1306 69.1522V67.3477C33.1306 66.9188 32.7757 66.5638 32.3468 66.5638H20.2334C19.7896 66.5638 19.4495 66.9188 19.4495 67.3477Z" fill="white"/>
<path d="M48.9711 16.9122H48.8824V12.8892C48.8824 5.8933 43.1585 -0.0524701 36.1773 0.0658537C29.3885 0.184177 23.8865 5.74539 23.8865 12.5638V12.9484C23.8865 13.5252 24.3598 13.9985 24.9366 13.9985H28.294C28.8709 13.9985 29.3441 13.5252 29.3441 12.9484V12.83C29.3441 9.07325 32.1691 5.77498 35.9259 5.53833C40.0081 5.28689 43.4099 8.526 43.4099 12.549V16.8974H33.0566V16.9122H23.4871C21.7123 16.9714 20.2776 18.406 20.2776 20.1957V38.388C20.2776 40.2072 21.7566 41.6862 23.5759 41.6862H48.9563C50.7755 41.6862 52.2546 40.2072 52.2546 38.388V20.2105C52.2694 18.3912 50.7903 16.9122 48.9711 16.9122ZM38.2332 30.1201C37.9818 30.2976 37.9078 30.4899 37.9078 30.7857C37.9226 32.1168 37.9226 33.4479 37.9078 34.7939C37.9374 35.3559 37.6564 35.8884 37.1535 36.1398C35.9851 36.7314 34.8166 35.9032 34.8166 34.7939C34.8166 34.7939 34.8166 34.7939 34.8166 34.7791C34.8166 33.4479 34.8166 32.102 34.8166 30.7709C34.8166 30.5046 34.7575 30.3124 34.5208 30.1349C33.308 29.2474 32.9087 27.724 33.5151 26.3781C34.1067 25.0765 35.5414 24.3074 36.8873 24.5885C38.3959 24.8843 39.446 26.1119 39.4608 27.6057C39.5052 28.6558 39.0763 29.5137 38.2332 30.1201Z" fill="white"/>
<path d="M38.884 67.3477V69.1522C38.884 69.5811 39.239 69.9361 39.6679 69.9361H51.7813C52.2102 69.9361 52.5652 69.5811 52.5652 69.1522V67.3477C52.5652 66.9188 52.2102 66.5638 51.7813 66.5638H39.6679C39.239 66.5638 38.884 66.9188 38.884 67.3477Z" fill="white"/>
<path d="M40.7183 59.5975C40.9993 60.0856 41.6353 60.2483 42.1234 59.9673L44.697 58.4734V61.4463C44.697 62.0083 45.1555 62.4668 45.7175 62.4668C46.2795 62.4668 46.738 62.0083 46.738 61.4463V58.4734L49.3116 59.9673C49.7997 60.2483 50.4356 60.0856 50.7167 59.5975C50.9977 59.1094 50.835 58.4734 50.3469 58.1924L47.7586 56.6838L50.3469 55.1751C50.835 54.8941 50.9977 54.2581 50.7167 53.77C50.4356 53.282 49.7997 53.1193 49.3116 53.4003L46.738 54.8941V51.9212C46.738 51.3592 46.2795 50.9007 45.7175 50.9007C45.1555 50.9007 44.697 51.3592 44.697 51.9212V54.8941L42.1234 53.4003C41.6353 53.1193 40.9993 53.282 40.7183 53.77C40.4373 54.2581 40.6 54.8941 41.0881 55.1751L43.6764 56.6838L41.0881 58.1924C40.6 58.4734 40.4373 59.1094 40.7183 59.5975Z" fill="white"/>
<path d="M71.2162 66.5638H59.1027C58.6738 66.5638 58.3188 66.9188 58.3188 67.3477V69.1522C58.3188 69.5811 58.6738 69.9361 59.1027 69.9361H71.2162C71.6451 69.9361 72 69.5811 72 69.1522V67.3477C72 66.9188 71.6451 66.5638 71.2162 66.5638Z" fill="white"/>
<path d="M0.783895 69.9361H12.8973C13.3262 69.9361 13.6812 69.5811 13.6812 69.1522V67.3477C13.6812 66.9188 13.3262 66.5638 12.8973 66.5638H0.783895C0.354971 66.5638 0 66.9188 0 67.3477V69.1522C0 69.5811 0.354971 69.9361 0.783895 69.9361Z" fill="white"/>
<path d="M60.1675 59.5975C60.4485 60.0856 61.0845 60.2483 61.5726 59.9673L64.1462 58.4734V61.4463C64.1462 62.0083 64.6047 62.4668 65.1667 62.4668C65.7287 62.4668 66.1872 62.0083 66.1872 61.4463V58.4734L68.7608 59.9673C69.2489 60.2483 69.8848 60.0856 70.1659 59.5975C70.4469 59.1094 70.2842 58.4734 69.7961 58.1924L67.2078 56.6838L69.7961 55.1751C70.2842 54.8941 70.4469 54.2581 70.1659 53.77C69.8848 53.282 69.2489 53.1193 68.7608 53.4003L66.1872 54.8941V51.9212C66.1872 51.3592 65.7287 50.9007 65.1667 50.9007C64.6047 50.9007 64.1462 51.3592 64.1462 51.9212V54.8941L61.5726 53.4003C61.0845 53.1193 60.4485 53.282 60.1675 53.77C59.8865 54.2581 60.0492 54.8941 60.5373 55.1751L63.1256 56.6838L60.5373 58.1924C60.0492 58.4734 59.8717 59.1094 60.1675 59.5975Z" fill="white"/>
</svg>
