<svg viewBox="0 0 72 72" fill="currentColor" xmlns="http://www.w3.org/2000/svg">
<g clip-path="url(#clip0)">
<path d="M11.8321 54.7849C11.5511 54.2968 10.9151 54.1341 10.4271 54.4151L7.85351 55.9089V52.9361C7.85351 52.374 7.39501 51.9155 6.83297 51.9155C6.27093 51.9155 5.81243 52.374 5.81243 52.9361V55.9089L3.23889 54.4151C2.7508 54.1341 2.11481 54.2968 1.83379 54.7849C1.55277 55.273 1.71547 55.9089 2.20355 56.19L4.79188 57.6986L2.20355 59.2072C1.71547 59.4882 1.55277 60.1242 1.83379 60.6123C2.11481 61.1004 2.7508 61.2631 3.23889 60.9821L5.81243 59.4882V62.4611C5.81243 63.0232 6.27093 63.4817 6.83297 63.4817C7.39501 63.4817 7.85351 63.0232 7.85351 62.4611V59.4882L10.4271 60.9821C10.9151 61.2631 11.5511 61.1004 11.8321 60.6123C12.1132 60.1242 11.9505 59.4882 11.4624 59.2072L8.87405 57.6986L11.4624 56.19C11.9505 55.8942 12.128 55.273 11.8321 54.7849Z" fill="currentColor"/>
<path d="M21.2835 60.5975C21.5645 61.0856 22.2005 61.2483 22.6886 60.9673L25.2621 59.4734V62.4463C25.2621 63.0083 25.7206 63.4668 26.2827 63.4668C26.8447 63.4668 27.3032 63.0083 27.3032 62.4463V59.4734L29.8768 60.9673C30.3649 61.2483 31.0008 61.0856 31.2819 60.5975C31.5629 60.1094 31.4002 59.4734 30.9121 59.1924L28.3238 57.6838L30.9121 56.1751C31.4002 55.8941 31.5629 55.2581 31.2819 54.77C31.0008 54.282 30.3649 54.1193 29.8768 54.4003L27.3032 55.8941V52.9212C27.3032 52.3592 26.8447 51.9007 26.2827 51.9007C25.7206 51.9007 25.2621 52.3592 25.2621 52.9212V55.8941L22.6886 54.4151C22.2005 54.1341 21.5645 54.2968 21.2835 54.7848C21.0025 55.2729 21.1652 55.9089 21.6533 56.1899L24.2416 57.6986L21.6533 59.1924C21.1652 59.4734 21.0025 60.1094 21.2835 60.5975Z" fill="currentColor"/>
<path d="M19.4495 68.3477V70.1522C19.4495 70.5811 19.8044 70.9361 20.2334 70.9361H32.3468C32.7757 70.9361 33.1306 70.5811 33.1306 70.1522V68.3477C33.1306 67.9188 32.7757 67.5638 32.3468 67.5638H20.2334C19.7896 67.5638 19.4495 67.9188 19.4495 68.3477Z" fill="currentColor"/>
<path d="M48.9711 17.9122H48.8824V13.8892C48.8824 6.8933 43.1585 0.94753 36.1773 1.06585C29.3885 1.18418 23.8865 6.74539 23.8865 13.5638V13.9484C23.8865 14.5252 24.3598 14.9985 24.9366 14.9985H28.294C28.8709 14.9985 29.3441 14.5252 29.3441 13.9484V13.83C29.3441 10.0732 32.1691 6.77498 35.9259 6.53833C40.0081 6.28689 43.4099 9.526 43.4099 13.549V17.8974H33.0566V17.9122H23.4871C21.7123 17.9714 20.2776 19.406 20.2776 21.1957V39.388C20.2776 41.2072 21.7566 42.6862 23.5759 42.6862H48.9563C50.7755 42.6862 52.2546 41.2072 52.2546 39.388V21.2105C52.2694 19.3912 50.7903 17.9122 48.9711 17.9122ZM38.2332 31.1201C37.9818 31.2976 37.9078 31.4899 37.9078 31.7857C37.9226 33.1168 37.9226 34.4479 37.9078 35.7939C37.9374 36.3559 37.6564 36.8884 37.1535 37.1398C35.9851 37.7314 34.8166 36.9032 34.8166 35.7939C34.8166 35.7939 34.8166 35.7939 34.8166 35.7791C34.8166 34.4479 34.8166 33.102 34.8166 31.7709C34.8166 31.5046 34.7575 31.3124 34.5208 31.1349C33.308 30.2474 32.9087 28.724 33.5151 27.3781C34.1067 26.0765 35.5414 25.3074 36.8873 25.5885C38.3959 25.8843 39.446 27.1119 39.4608 28.6057C39.5052 29.6558 39.0763 30.5137 38.2332 31.1201Z" fill="currentColor"/>
<path d="M38.884 68.3477V70.1522C38.884 70.5811 39.239 70.9361 39.6679 70.9361H51.7813C52.2102 70.9361 52.5652 70.5811 52.5652 70.1522V68.3477C52.5652 67.9188 52.2102 67.5638 51.7813 67.5638H39.6679C39.239 67.5638 38.884 67.9188 38.884 68.3477Z" fill="currentColor"/>
<path d="M40.7183 60.5975C40.9993 61.0856 41.6353 61.2483 42.1234 60.9673L44.697 59.4734V62.4463C44.697 63.0083 45.1555 63.4668 45.7175 63.4668C46.2795 63.4668 46.738 63.0083 46.738 62.4463V59.4734L49.3116 60.9673C49.7997 61.2483 50.4356 61.0856 50.7167 60.5975C50.9977 60.1094 50.835 59.4734 50.3469 59.1924L47.7586 57.6838L50.3469 56.1751C50.835 55.8941 50.9977 55.2581 50.7167 54.77C50.4356 54.282 49.7997 54.1193 49.3116 54.4003L46.738 55.8941V52.9212C46.738 52.3592 46.2795 51.9007 45.7175 51.9007C45.1555 51.9007 44.697 52.3592 44.697 52.9212V55.8941L42.1234 54.4003C41.6353 54.1193 40.9993 54.282 40.7183 54.77C40.4373 55.2581 40.6 55.8941 41.0881 56.1751L43.6764 57.6838L41.0881 59.1924C40.6 59.4734 40.4373 60.1094 40.7183 60.5975Z" fill="currentColor"/>
<path d="M71.2162 67.5638H59.1027C58.6738 67.5638 58.3188 67.9188 58.3188 68.3477V70.1522C58.3188 70.5811 58.6738 70.9361 59.1027 70.9361H71.2162C71.6451 70.9361 72 70.5811 72 70.1522V68.3477C72 67.9188 71.6451 67.5638 71.2162 67.5638Z" fill="currentColor"/>
<path d="M0.783895 70.9361H12.8973C13.3262 70.9361 13.6812 70.5811 13.6812 70.1522V68.3477C13.6812 67.9188 13.3262 67.5638 12.8973 67.5638H0.783895C0.354971 67.5638 0 67.9188 0 68.3477V70.1522C0 70.5811 0.354971 70.9361 0.783895 70.9361Z" fill="currentColor"/>
<path d="M60.1675 60.5975C60.4485 61.0856 61.0845 61.2483 61.5726 60.9673L64.1462 59.4734V62.4463C64.1462 63.0083 64.6047 63.4668 65.1667 63.4668C65.7287 63.4668 66.1872 63.0083 66.1872 62.4463V59.4734L68.7608 60.9673C69.2489 61.2483 69.8848 61.0856 70.1659 60.5975C70.4469 60.1094 70.2842 59.4734 69.7961 59.1924L67.2078 57.6838L69.7961 56.1751C70.2842 55.8941 70.4469 55.2581 70.1659 54.77C69.8848 54.282 69.2489 54.1193 68.7608 54.4003L66.1872 55.8941V52.9212C66.1872 52.3592 65.7287 51.9007 65.1667 51.9007C64.6047 51.9007 64.1462 52.3592 64.1462 52.9212V55.8941L61.5726 54.4003C61.0845 54.1193 60.4485 54.282 60.1675 54.77C59.8865 55.2581 60.0492 55.8941 60.5373 56.1751L63.1256 57.6838L60.5373 59.1924C60.0492 59.4734 59.8717 60.1094 60.1675 60.5975Z" fill="currentColor"/>
</g>
<defs>
<clipPath id="clip0">
<rect width="72" height="72" fill="currentColor"/>
</clipPath>
</defs>
</svg>
