<svg width="20" height="20" viewBox="0 0 20 20" fill="none" xmlns="http://www.w3.org/2000/svg">
<g clip-path="url(#clip0)">
<path d="M9.99985 12.4622C11.36 12.4622 12.4626 11.3596 12.4626 9.99947C12.4626 8.63933 11.36 7.53672 9.99985 7.53672C8.63972 7.53672 7.53711 8.63933 7.53711 9.99947C7.53711 11.3596 8.63972 12.4622 9.99985 12.4622Z" fill="#ACA8A8"/>
<path d="M19.8767 9.68751C19.6963 9.49667 15.4056 4.99855 9.99939 4.99855C4.59382 4.99855 0.303682 9.49667 0.123786 9.68751C-0.0402856 9.86276 -0.0402856 10.1361 0.123786 10.3105C0.304396 10.5013 4.59466 15.0015 9.99939 15.0015C15.4056 15.0015 19.6976 10.5013 19.8767 10.3105C20.0419 10.1361 20.0419 9.86134 19.8767 9.68751ZM10.0006 13.8067C7.90191 13.8067 6.19457 12.099 6.19457 9.99864C6.19457 7.89997 7.90191 6.19131 10.0006 6.19131C12.0991 6.19131 13.8089 7.89938 13.8089 9.99864C13.8084 12.0978 12.0991 13.8067 10.0006 13.8067ZM6.98256 6.40452C5.95399 7.27009 5.28485 8.55138 5.28485 9.99864C5.28485 11.4453 5.95399 12.7267 6.98256 13.5938C4.13659 12.6785 1.90169 10.7526 1.10286 9.99864C1.90181 9.2455 4.13718 7.31935 6.98256 6.40452ZM13.02 13.5924C14.0479 12.7262 14.7179 11.4446 14.7179 9.99864C14.7179 8.55269 14.0485 7.272 13.0192 6.40583C15.8651 7.32114 18.0983 9.24467 18.8976 9.99864C18.0982 10.7519 15.8649 12.6758 13.02 13.5924Z" fill="#ACA8A8"/>
</g>
<defs>
<clipPath id="clip0">
<rect width="20" height="20" fill="white"/>
</clipPath>
</defs>
</svg>
