<svg viewBox="0 0 20 20" fill="none" xmlns="http://www.w3.org/2000/svg">
<path d="M10 9.5C10.417 9.5 10.81 9.398 11.156 9.217L12.248 10.309C11.4245 10.8687 10.4219 11.1011 9.43609 10.9608C8.45032 10.8205 7.55232 10.3176 6.91764 9.55037C6.28296 8.78317 5.95723 7.80684 6.00414 6.81225C6.05104 5.81766 6.46721 4.87631 7.17127 4.17225C7.87534 3.46818 8.81668 3.05202 9.81127 3.00512C10.8059 2.95821 11.7822 3.28394 12.5494 3.91862C13.3166 4.5533 13.8195 5.4513 13.9598 6.43706C14.1001 7.42283 13.8677 8.42548 13.308 9.249L12.218 8.156C12.4704 7.67215 12.5574 7.11904 12.466 6.58106C12.3745 6.04309 12.1096 5.54981 11.7116 5.17651C11.3135 4.80321 10.8043 4.57039 10.2616 4.51358C9.71886 4.45678 9.17246 4.57911 8.70576 4.8619C8.23907 5.1447 7.87772 5.57242 7.67686 6.0798C7.476 6.58718 7.44667 7.14635 7.59334 7.67196C7.74001 8.19756 8.05463 8.66075 8.48918 8.99082C8.92373 9.32089 9.45434 9.49971 10 9.5Z" fill="currentColor"/>
<path fill-rule="evenodd" clip-rule="evenodd" d="M16.96 16.812C16.947 16.712 16.93 16.608 16.91 16.5C16.588 14.871 15.223 12.5 10 12.5C4.777 12.5 3.412 14.871 3.09 16.5C3.06988 16.6034 3.05321 16.7075 3.04 16.812C2.95 17.505 3.04 18 3.04 18H16.96C16.96 18 17.05 17.505 16.96 16.812ZM15.144 15.965C15.241 16.143 15.314 16.324 15.366 16.5H4.634C4.687 16.324 4.759 16.143 4.855 15.965C5.265 15.21 6.398 14 10 14C13.602 14 14.735 15.21 15.145 15.965H15.144Z" fill="currentColor"/>
</svg>
