<svg viewBox="0 0 16 16" fill="none" xmlns="http://www.w3.org/2000/svg">
<path fill-rule="evenodd" clip-rule="evenodd" d="M0 6.606L2.422 5.934C2.47616 5.78534 2.53621 5.63889 2.602 5.495L1.363 3.326L3.325 1.364L5.496 2.6C5.642 2.534 5.788 2.474 5.934 2.42L6.6 0H9.367L10.032 2.422C10.179 2.475 10.325 2.535 10.472 2.602L12.64 1.364L14.636 3.326L13.4 5.502C13.466 5.648 13.526 5.795 13.58 5.941L16 6.606V9.354L13.578 10.019C13.5238 10.168 13.4637 10.3147 13.398 10.459L14.636 12.64L12.64 14.636L10.485 13.399C10.3407 13.4647 10.194 13.5248 10.045 13.579L9.38 16H6.614L5.949 13.578C5.80005 13.5237 5.65327 13.4637 5.509 13.398L3.327 14.636L1.365 12.64L2.6 10.472C2.53428 10.3277 2.47423 10.181 2.42 10.032L0 9.367V6.607V6.606ZM3.52 2.901L5.489 3.991H5.535C5.948 3.74 6.397 3.551 6.865 3.433H6.925L7.545 1.257H8.422L9.022 3.433H9.074C9.544 3.553 9.992 3.743 10.405 3.998H10.458L12.454 2.888L13.079 3.513L11.975 5.495C11.9785 5.5125 11.9785 5.5305 11.975 5.548C12.229 5.96 12.418 6.409 12.534 6.879C12.5302 6.89647 12.5302 6.91453 12.534 6.932L14.723 7.538V8.422L12.533 9.028C12.5302 9.0432 12.5302 9.0588 12.533 9.074C12.416 9.54243 12.2303 9.99095 11.982 10.405C11.9796 10.4226 11.9796 10.4404 11.982 10.458L13.092 12.454L12.474 13.073L10.478 11.962H10.432C10.0096 12.2245 9.54666 12.4154 9.062 12.527H9.015L8.415 14.697H7.545L6.945 12.527L6.746 12.467C6.32031 12.3645 5.91243 12.1987 5.536 11.975H5.482L3.519 13.066L2.901 12.447L4.011 10.452C4.01344 10.4341 4.01344 10.4159 4.011 10.398C3.76184 9.9846 3.57579 9.53633 3.459 9.068V9.028L1.271 8.422V7.544L3.459 6.939V6.892C3.5638 6.40802 3.74364 5.94341 3.992 5.515V5.475L2.9 3.526L3.518 2.901H3.52Z" fill="currentColor"/>
</svg>
